<?xml version="1.0" encoding="utf-8"?>
<!-- Generator: Adobe Illustrator 19.2.1, SVG Export Plug-In . SVG Version: 6.00 Build 0)  -->
<svg version="1.1" id="Layer_1" xmlns="http://www.w3.org/2000/svg" xmlns:xlink="http://www.w3.org/1999/xlink" x="0px" y="0px"
	 viewBox="0 0 58 58" style="enable-background:new 0 0 58 58;" xml:space="preserve">
<style type="text/css">
	.st0{opacity:0.7;fill:#198396;}
	.st1{fill:#70A06B;}
	.st2{opacity:0.8;fill:#196674;}
	.st3{opacity:0.7;}
	.st4{fill:#198396;}
	.st5{opacity:0.4;fill:#198396;}
	.st6{opacity:0.5;fill:#198396;}
</style>
<path class="st0" d="M43,58.1c-0.1,0-0.2,0-0.2-0.2c0-0.3,0-0.5,0-0.8l0-1.5c0-0.8,0-1.5,0-2.3c0-0.7,0-1.4-0.1-2.1
	c0-0.6,0-1.3-0.1-1.9c0-0.4,0-0.9,0-1.3c0-0.5,0-0.9,0-1.4c0-1.1,0-2.3,0-3.4c0-0.9,0-1.7,0-2.6c0-1.1,0-2.3,0-3.6c0-1,0-2.1,0-3.1
	c0-1.2,0-2.3,0-3.5c0-0.5,0-1.1,0-1.6c0-0.7,0-1.4,0-2.1c0-0.5,0-1,0-1.5c0-0.6,0-1.1,0-1.7c0-0.5,0-1,0-1.6c0-0.5,0-1,0-1.5
	c0-0.8,0-1.7,0-2.5c0-0.8,0-1.7,0-2.5c0.1-2,0.4-3.7,1-5.2c0-0.1,0.1-0.2,0.1-0.3c0.1-0.1,0.1-0.2,0.1-0.2s0.1,0,0.2,0.1
	c0.4,0.5,0.7,1.1,0.9,1.6c0.6,1.6,1,3.3,1.3,4.7c0.3,1.7,0.6,3.5,0.8,5.6c0.2,1.5,0.3,3,0.4,4.5c0.1,1.8,0.2,3.5,0.3,5.2
	c0,0.9,0.1,1.8,0.1,2.7l0,0.7c0.1,2.4,0.1,4.8,0.1,7.4l0,1.3c0,1,0,1.9,0,2.9c0,1.8-0.1,3.5-0.1,5.3c0,1.3-0.1,2.6-0.1,3.9l0,0.4
	c0,0.3,0,0.6-0.1,0.9c0,0.3,0,0.5,0,0.8c0,0.2-0.1,0.3-0.3,0.3l-0.1,0c-0.3,0-0.5,0-0.8-0.1c-0.1,0-0.2,0-0.3,0c-0.2,0-0.4,0-0.6,0
	c-0.5,0-1,0.1-1.6,0.2C43.6,58,43.3,58.1,43,58.1C43,58.1,43,58.1,43,58.1z"/>
<path class="st0" d="M20.6,56c-0.1,0-0.2,0-0.2-0.4c0-0.6,0-1.2,0-1.8c0-0.5,0-0.9,0-1.4c0-0.8-0.1-1.5-0.1-2.3c0-0.5,0-1,0-1.5
	c0-0.5,0-0.9,0-1.4c0-0.4,0-0.8,0-1.2c-0.1-2.4-0.1-4.9-0.1-7.3c0-1,0-2,0-3l0-0.2c0-1.4,0-2.9,0-4.3c0-0.5,0-1.1,0-1.6
	c0-0.7,0-1.4,0-2c0-0.5,0-1,0-1.5c0-0.5,0-1.1,0-1.6c0-0.7,0-1.4,0-2.1c0-0.6,0-1.3,0-1.9c0-0.4,0-0.7,0-1.1c0-0.5,0-1,0-1.6
	c0.1-1.8,0.4-3.1,0.9-4.3c0-0.1,0.1-0.1,0.1-0.2c0-0.1,0.1-0.1,0.1-0.1c0,0,0,0,0.1,0.1c0.4,0.4,0.6,0.9,0.8,1.4
	c0.6,1.5,0.9,3,1.2,4.4c0.2,1.3,0.4,2.7,0.6,4.5c0.1,0.8,0.1,1.5,0.2,2.3c0,0.4,0.1,0.8,0.1,1.1c0.2,1.8,0.2,3.5,0.3,5.2
	c0.1,1.5,0.1,3,0.1,4.4l0,0.2c0,1.9,0,3.9,0,5.7l0,1.6c0,1.2,0,2.4,0,3.7c0,1.3-0.1,2.7-0.1,4l0,0.8c0,0.9-0.1,1.9-0.2,2.9
	c0,0.3-0.1,0.4-0.3,0.4c0,0-0.1,0-0.1,0c-0.4-0.1-0.8-0.1-1.2-0.1c-0.1,0-0.2,0-0.3,0c-0.4,0-0.8,0.1-1.2,0.1C21.2,56,21,56,20.8,56
	C20.7,56,20.6,56,20.6,56z"/>
<path class="st2" d="M10.1,11.1C10,11.1,10,11.1,10.1,11.1c-0.1,0-0.1,0-0.1-0.1c0-1.2,0-2.3,0-3.5c0-0.2,0.1-0.2,0.2-0.2l23.1-4.9
	c3.5-0.8,7.1-1.5,10.6-2.3c0.1,0,0.1,0,0.1,0c0.1,0,0.1,0.1,0.1,0.2c0,0.5,0,1,0,1.6l0,1.2c0,0.5,0,1.1,0,1.6c0,0.1,0,0.2-0.2,0.2
	c-5.6,1-11.1,2.1-16.7,3.1l-16.3,3C10.7,11,10.4,11.1,10.1,11.1C10.1,11.1,10.1,11.1,10.1,11.1z"/>
<path class="st0" d="M39.5,57.8c-0.2,0-0.2-0.1-0.3-0.6c0-0.6,0-1.2,0-1.8c0-0.5,0-1,0-1.5c0-0.8-0.1-1.7-0.1-2.5l0-1.2
	c0-1.3-0.1-2.6-0.1-3.9l0-1.5c0-2.2,0-4.4,0-6.6c0-1,0-1.9,0-2.9c0-1,0-2,0-3.1l0-1.3H39l0-1.7c0-1.3,0-2.6,0-3.9c0-0.4,0-0.8,0-1.1
	c0-0.7,0-1.3,0-2c0-1.1,0-2.3,0-3.4c0-0.8,0-1.6,0-2.4c0-2.3,0.3-4,0.9-5.6c0.1-0.2,0.2-0.4,0.2-0.6c0.1-0.1,0.1-0.2,0.1-0.2
	c0,0,0.1,0,0.2,0.1c0.3,0.4,0.5,0.9,0.7,1.3c0.3,0.7,0.5,1.4,0.8,2.3c0.1,0.2,0,0.4,0,0.6c0,0.4,0,0.7,0,1.1l0,2.1c0,1.3,0,2.7,0,4
	c0,0.4,0,0.8,0,1.2c0,0.6,0,1.2,0,1.9c0,0.6,0,1.2,0,1.8c0,0.6,0,1.1,0,1.7c0,0.8,0,1.7,0,2.5c0,0.7,0,1.4,0,2.1
	c-0.1,2.1,0,4.2,0,6.2c0,0.8,0,1.5,0,2.3c0,1.9,0,3.8,0.1,5.7c0,1.6,0.1,3.1,0.1,4.6c0.1,1.6,0.1,3.3,0.1,4.9c0,0.2,0,0.4,0,0.6
	c0,0.1,0,0.1,0,0.1l-0.1,0c-0.1,0-0.2,0-0.3,0c-0.4,0-0.9,0.1-1.3,0.2c-0.2,0-0.3,0.1-0.5,0.1C39.7,57.7,39.6,57.8,39.5,57.8z"/>
<path class="st0" d="M36.1,57.2c-0.2,0-0.2,0-0.3-0.5c0-0.5,0-0.9,0-1.5l0-0.6c0-0.5,0-1.2,0-1.9c0-0.3,0-0.7,0-1
	c0-0.8,0-1.5-0.1-2.3c0-0.8,0-1.5-0.1-2.3c0-0.7,0-1.4,0-2c0-0.6,0-1.3,0-1.9c-0.1-2.7,0-5.5,0-8.2l0-1.9c0-1.3,0-2.5,0-3.8
	c0-0.5,0-1,0-1.5c0-0.6,0-1.3,0-1.9c0-0.5,0-1.1,0-1.6c0-0.5,0-1.1,0-1.6c0-0.7,0-1.4,0-2.1c0-0.6,0-1.2,0-1.9c0-0.4,0-0.8,0-1.2
	c0-0.6,0-1.1,0-1.7c0.1-2,0.5-3.4,1-4.8c0-0.1,0.1-0.1,0.1-0.2c0.1-0.1,0.1-0.1,0.1-0.1c0,0,0.1,0,0.1,0.1c0.4,0.4,0.6,0.9,0.8,1.4
	l0.1,0.1c0.2,0.6,0.4,1.1,0.6,1.8c0.1,0.3,0.1,0.6,0,1c0,0.2,0,0.4,0,0.6c0,0.1,0,0.2,0,0.3c0,0.1,0,0.2,0,0.3c0,0.5,0,1,0,1.4
	c0,1,0,1.9,0,2.9c0,0.5,0,0.9,0,1.4c0,0.6,0,1.3,0,1.9c0,0.5,0,1.1,0,1.6c0,0.5,0,1,0,1.6c0,0.8,0,1.6,0,2.3c0,0.5,0,1.1,0,1.6
	c-0.1,3.5-0.1,7.1,0,10.6l0,2.8c0,1.3,0,2.5,0.1,3.8l0,0.8c0,1.2,0,2.3,0.1,3.5c0.1,1.4,0.1,2.9,0.1,4.3c0,0.1,0,0.1,0,0.1l-0.1,0
	c-0.1,0-0.1,0-0.2,0c-0.4,0-0.8,0.1-1.2,0.1c-0.2,0-0.4,0.1-0.6,0.1l-0.1,0C36.3,57.2,36.2,57.2,36.1,57.2z"/>
<path class="st0" d="M32.7,56.7c-0.2,0-0.2,0-0.2-0.3c0-0.4,0-0.7,0-1.1l0-0.5c0-0.9,0-1.9-0.1-2.8c0-0.7-0.1-1.3-0.1-2
	c0-1.1,0-2.2-0.1-3.3l0-2.3c0-1.9,0-3.8,0-5.7c0-0.9,0-1.7,0-2.6l0-0.5c0-1,0-2.1,0-3.1c0-0.7,0-1.3,0-2c0-0.7,0-1.4,0-2.2
	c0-0.5,0-1,0-1.5c0-0.6,0-1.2,0-1.7c0-0.5,0-1.1,0-1.6c0-0.5,0-1,0-1.6c0-0.9,0-1.8,0-2.6c0-0.8,0-1.6,0-2.5c0.1-2,0.4-3.6,1-5.1
	c0,0,0-0.1,0-0.1c0-0.1,0.1-0.2,0.2-0.2h0c0.1,0,0.1,0.1,0.2,0.2l0,0.1c0.4,0.6,0.7,1.3,0.9,2l0.1,0.2c0,0,0,0.1,0,0.1
	c0,0.1,0,0.1,0.1,0.2c0.2,0.6,0.2,1.2,0.2,1.8l0,0.2c0,0.8,0,1.6,0,2.4c0,0.7,0,1.4,0,2.1c0,0.5,0,0.9,0,1.4c0,0.7,0,1.4,0,2
	c0,0.5,0,1,0,1.5c0,0.5,0,1,0,1.5c0,0.8,0,1.7,0,2.5c0,0.6,0,1.2,0,1.8c-0.1,3.5-0.1,7,0,10.5l0,1.8c0,1.3,0,2.6,0.1,3.9l0,0.7
	c0,1.2,0,2.4,0.1,3.6c0.1,1.3,0.1,2.6,0.1,3.8l0,0.5c0,0,0,0.1,0,0.1l-0.1,0c-0.1,0-0.2,0-0.2,0c-0.4,0-0.8,0.1-1.2,0.1
	c-0.3,0-0.6,0.1-0.8,0.1C32.8,56.7,32.7,56.7,32.7,56.7z"/>
<path class="st0" d="M17.4,55.7c-0.1,0-0.2,0-0.2-0.3c0-0.4,0-0.7,0-1.1c0-0.2,0-0.4,0-0.6l0-1.5c0-1.2-0.1-2.4-0.1-3.6
	c0-0.5,0-1,0-1.5c0-0.4,0-0.8,0-1.2c-0.1-2.3-0.1-4.7-0.1-7c0-0.9,0-1.8,0-2.7l0-0.3c0-1.3,0-2.7,0-4.1c0-0.5,0-1.1,0-1.6
	c0-0.7,0-1.3,0-2c0-0.5,0-1,0-1.5c0-0.5,0-1.1,0-1.6c0-0.8,0-1.5,0-2.3c0-0.6,0-1.1,0-1.7c0-0.3,0-0.7,0-1c0-0.7,0-1.5,0.1-2.2
	c0.2-1.5,0.5-2.6,0.9-3.7c0.1-0.2,0.1-0.2,0.1-0.2c0,0,0,0,0.2,0.2c0.4,0.5,0.6,1,0.8,1.5c0.1,0.4,0.2,0.7,0.4,1.1l0.1,0.4
	c0.1,0.2,0,0.3,0,0.5c-0.1,0.9-0.1,1.7-0.1,2.5c0,0.4,0,0.9,0,1.3c0,0.6,0,1.1,0,1.7c0,1,0,1.9-0.1,2.9c0,0.5,0,1,0,1.6
	c0,0.6,0,1.1,0,1.7c0,0.9,0,1.7,0,2.6c0,0.7,0,1.3,0,2c-0.1,2.9,0,5.9,0,8.7l0,0.8c0,1.1,0,2.2,0,3.3l0,1.2c0,1.1,0,2.1,0.1,3.2
	c0.1,1.4,0.1,2.8,0.1,4.1c0,0.1,0,0.1,0,0.2c0,0,0,0-0.1,0l-0.1,0c-0.4,0-0.8,0.1-1.1,0.1c-0.2,0-0.4,0.1-0.6,0.1
	c-0.1,0-0.1,0-0.2,0C17.6,55.7,17.5,55.7,17.4,55.7z"/>
<path class="st0" d="M14.5,55.3c-0.2,0-0.2,0-0.2-0.3c0-0.6,0-1.3,0-1.9c0-0.5,0-1,0-1.5c0-0.8-0.1-1.6-0.1-2.4c0-0.5,0-1,0-1.6
	c0-0.6,0-1.2,0-1.7c0-0.5,0-0.9,0-1.4c-0.1-3-0.1-6,0-9l0-2.4c0-0.7,0-1.4,0.1-2.2l0-1.5c0-1.2,0-2.4,0-3.5c0-0.4,0-0.9,0-1.3
	c0-0.7,0-1.4,0-2.1c0-0.6,0-1.2,0-1.7c0-0.6,0-1.3,0-1.9c0.1-1.7,0.4-3.1,0.9-4.4c0,0,0-0.1,0-0.1c0-0.1,0.1-0.1,0.1-0.1h0
	c0.1,0,0.1,0,0.1,0.1c0.5,0.6,0.7,1.3,0.9,2l0.1,0.2c0,0.1,0,0.1,0,0.2c0,0.1,0,0.2,0.1,0.2c0.2,0.4,0.1,0.9,0.1,1.3
	c0,0.2,0,0.4,0,0.5c0,0.7,0,1.4,0,2.2c0,0.6,0,1.3,0,1.9l0,0.6c0,1,0,2-0.1,2.9c0,0.5,0,1.1,0,1.6c0,0.5,0,1,0,1.5
	c0,0.9,0,1.8,0,2.7c0,0.7,0,1.4,0,2.2c-0.1,2.8,0,5.7,0,8.3l0,0.9c0,1,0,1.9,0,2.9l0,1.2c0,1.1,0,2.1,0.1,3.2c0,1,0.1,2,0.1,3l0,0.8
	c0,0.1,0,0.1,0,0.2c0,0-0.1,0-0.2,0c-0.4,0-0.7,0.1-1,0.1c-0.2,0-0.4,0.1-0.6,0.1c-0.1,0-0.1,0-0.2,0C14.5,55.3,14.5,55.3,14.5,55.3
	z"/>
<path class="st0" d="M11.6,54.8c-0.2,0-0.2,0-0.3-0.5c0-0.3,0-0.7,0-1c0-0.2,0-0.5,0-0.5h0l0-1.4c0-1.2-0.1-2.4-0.1-3.7
	c0-0.5,0-0.9,0-1.4c0-0.3,0-0.7,0-1c-0.1-2.2-0.1-4.4,0-6.6c0-0.9,0-1.8,0-2.7l0-0.6c0-0.9,0-1.7,0-2.6c0-0.6,0-1.3,0-1.9
	c0-0.7,0-1.3,0-2c0-0.5,0-1,0-1.5c0-0.6,0-1.1,0-1.7c0-0.6,0-1.3,0-1.9c0-0.6,0-1.2,0-1.8c0-0.4,0-0.8,0-1.3c0-0.5,0-1.1,0-1.6
	c0.1-1.6,0.4-2.9,0.9-4.1l0-0.1c0-0.1,0-0.1,0.1-0.1h0c0,0,0.1,0,0.1,0.1l0,0.1c0.3,0.4,0.5,0.9,0.7,1.3c0.2,0.5,0.3,1,0.5,1.5
	c0.1,0.3,0.1,0.5,0,0.8c0,0.2,0,0.3,0,0.5c0,0,0,0.1,0,0.1c0,0,0,0.1,0,0.1l0,1.5c0,1.1,0,2.2,0,3.3c0,0.4,0,0.9,0,1.3
	c0,0.6,0,1.3,0,1.9c0,0.6,0,1.1,0,1.7c0,0.4,0,0.8,0,1.3c-0.1,2.3-0.1,4.6-0.1,6.8l0,1.3c0,2.3,0,4.6,0,7c0,1.5,0.1,3.1,0.1,4.7
	c0.1,1.3,0.1,2.7,0.1,4.2c0,0.1,0,0.2,0,0.2c0,0-0.1,0-0.1,0l-0.2,0c-0.3,0-0.7,0.1-1,0.1c-0.1,0-0.2,0-0.3,0.1
	C11.8,54.8,11.7,54.8,11.6,54.8z"/>
<path class="st2" d="M47.9,5.5c0,0-0.1,0-0.1,0c-0.8-0.2-1.6-0.4-2.4-0.5l-0.5-0.1c-0.1,0-0.2-0.1-0.2-0.2c0-1.5,0-3,0-4.4
	c0-0.1,0-0.1,0-0.1c0,0,0,0,0,0c0,0,0.1,0,0.1,0c1,0.2,2,0.4,3,0.6C48,0.8,48,0.8,48,1c0,0.5,0,1.1,0,1.6l0,1.2c0,0.5,0,1,0,1.5
	C48,5.4,48,5.5,47.9,5.5L47.9,5.5z"/>
<path class="st2" d="M42.3,12.7c-0.2-0.6-0.4-1.2-0.7-1.8c-0.2-0.4-0.4-0.9-0.9-1.1c0,0,0,0,0-0.1C41,8.6,41,7.5,41,6.4l0-0.1
	c0-0.2,0.1-0.3,0.2-0.3c0.1,0,0.2,0,0.3-0.1c0.1,0,0.1,0,0.2,0c0.2,0,0.3,0,0.4,0.4l0.1,0.3c0.3,0.8,0.6,1.6,1.1,2.4
	c0,0.1,0.1,0.2,0,0.3c-0.1,0.4-0.2,0.7-0.3,1c-0.2,0.4-0.3,0.9-0.4,1.4L42.3,12.7z"/>
<path class="st2" d="M35.4,13.6c-0.1-0.2-0.2-0.4-0.2-0.6c-0.1-0.2-0.2-0.5-0.3-0.7l-0.1-0.2c-0.2-0.4-0.4-0.9-0.9-1.2l0-0.1
	c0.3-1,0.3-1.9,0.3-3c0-0.2,0.1-0.3,0.3-0.4c0.1,0,0.3-0.1,0.4-0.1c0,0,0,0,0,0c0.2,0,0.3,0,0.4,0.2c0.3,0.8,0.6,1.6,1,2.4
	c0.1,0.2,0.2,0.4,0,0.6C35.9,11.5,35.6,12.5,35.4,13.6z"/>
<path class="st2" d="M38.7,12.5c-0.2-0.4-0.4-0.9-0.6-1.3c-0.2-0.3-0.4-0.7-0.8-1c-0.1,0-0.1-0.1,0-0.1c0.2-0.8,0.2-1.7,0.3-2.5
	c0-0.1,0-0.2,0-0.3c0-0.1,0-0.3,0-0.4c0-0.1,0-0.1,0.1-0.1c0.1-0.1,0.3-0.1,0.5-0.1c0.1,0,0.2,0,0.2,0c0.1,0,0.1,0,0.1,0.1l0,0.1
	c0.3,0.8,0.6,1.5,0.9,2.3c0,0.1,0.1,0.2,0.1,0.2c0.3,0.3,0.3,0.7,0.1,1.1c-0.4,0.8-0.6,1.7-0.8,2.5C38.8,12.8,38.7,12.7,38.7,12.5z"
	/>
<path class="st2" d="M20,15.9c-0.2-0.5-0.4-1.2-0.7-1.8c-0.2-0.3-0.3-0.5-0.6-0.7c-0.1-0.1-0.1-0.1-0.1-0.2c0.2-0.9,0.2-1.8,0.2-2.8
	c0-0.3,0-0.3,0.3-0.4c0.1,0,0.2,0,0.2,0c0.1,0,0.2,0,0.3,0.3l0.1,0.3c0.3,0.7,0.6,1.5,1,2.2c0.1,0.1,0,0.1,0,0.2
	C20.4,14,20.1,15,20,15.9z"/>
<path class="st2" d="M13.9,16.8c-0.2-0.7-0.5-1.3-0.9-1.9c0,0-0.1-0.1-0.1-0.1c-0.3-0.2-0.3-0.4-0.2-0.7c0.2-0.7,0.2-1.5,0.2-2.2
	c0-0.3,0-0.4,0.4-0.4c0.1,0,0.2,0,0.2,0c0.1,0,0.2,0,0.3,0.3l0.1,0.3c0.2,0.7,0.5,1.4,0.9,2c0,0,0,0,0,0.1
	C14.4,14.8,14.1,15.7,13.9,16.8L13.9,16.8z"/>
<path class="st2" d="M16.9,16.2c-0.2-0.6-0.4-1.2-0.8-1.7c-0.1-0.2-0.3-0.5-0.5-0.6c0,0-0.1-0.1,0-0.1c0.2-0.9,0.2-1.7,0.2-2.7
	c0-0.2,0.1-0.3,0.3-0.3c0.1,0,0.1,0,0.2,0c0.1,0,0.2,0,0.3,0.2l0.1,0.1c0.3,0.8,0.6,1.7,1.1,2.4c0,0,0,0.1,0,0.1
	C17.3,14.5,17.1,15.3,16.9,16.2z"/>
<path class="st2" d="M45.7,11.5c-0.2-0.5-0.4-1-0.7-1.5c-0.2-0.3-0.4-0.7-0.8-0.9c0,0,0,0,0-0.1c0.3-1,0.3-2.1,0.3-3.1
	c0-0.4,0.1-0.5,0.3-0.5c0.1,0,0.2,0,0.3,0c0.5,0.1,0.5,0.1,0.5,0.5c0,1.2,0,2.4,0,3.5l0,0.7c0,0.3,0,0.5,0,0.8l0,0.4
	C45.7,11.4,45.7,11.4,45.7,11.5C45.7,11.5,45.7,11.5,45.7,11.5z"/>
<path class="st2" d="M22.9,14.7c-0.2-0.5-0.4-1-0.8-1.5c-0.3-0.3-0.3-0.6-0.3-1C22,11.5,22,10.7,22,10c0-0.2,0.1-0.3,0.3-0.3
	c0.1,0,0.1,0,0.2,0c0.1,0,0.1,0,0.2,0c0.2,0,0.2,0,0.2,0.1c0,0.1,0,0.2,0,0.3c0,1.2,0,2.5,0,3.7c0,0.2,0,0.5,0,0.7L22.9,14.7
	C22.9,14.7,22.9,14.7,22.9,14.7z"/>
<path class="st0" d="M43.7,8.6c-0.3-0.5-0.5-0.9-0.6-1.4L43,7c-0.1-0.2-0.1-0.4-0.2-0.6c-0.1-0.2-0.1-0.4-0.2-0.5
	c0-0.1,0-0.1,0.1-0.2c0.3-0.1,0.6-0.2,1-0.2c0.1,0,0.2,0,0.2,0c0.1,0,0.1,0,0.1,0.1c0,0.7,0,1.4-0.1,2l0,0.1
	C43.8,8,43.8,8.3,43.7,8.6z"/>
<path class="st0" d="M40.2,9.3C40,9,39.9,8.8,39.8,8.6l0-0.1c-0.2-0.5-0.5-1.1-0.7-1.8c0-0.1,0-0.2,0.1-0.2c0.3-0.1,0.6-0.1,0.9-0.1
	l0.2,0c0.1,0,0.1,0,0.1,0.1l0,0.3C40.4,7.6,40.3,8.4,40.2,9.3z"/>
<path class="st0" d="M36.8,9.8c-0.4-0.8-0.7-1.6-1-2.4c-0.1-0.2-0.1-0.3-0.1-0.4c0-0.1,0.2-0.1,0.4-0.1c0.2,0,0.4,0,0.6,0l0.2,0
	l0.1,0C37,8,36.9,8.9,36.8,9.8z"/>
<path class="st0" d="M33.4,10.5c0-0.1-0.1-0.1-0.1-0.2l0-0.1c-0.3-0.6-0.5-1.2-0.8-1.8L32.3,8c-0.1-0.1,0-0.2,0.1-0.2
	c0.2-0.1,0.5-0.1,0.8-0.1l0.3,0l0.1,0.1C33.6,8.7,33.5,9.6,33.4,10.5z"/>
<path class="st0" d="M21.2,12.4c-0.1-0.2-0.2-0.5-0.3-0.7c-0.1-0.3-0.2-0.5-0.3-0.7c-0.1-0.3-0.2-0.6-0.3-0.8c0-0.1,0-0.1,0-0.1
	c0,0,0.1-0.1,0.1-0.1c0.2-0.1,0.4-0.1,0.7-0.1c0.1,0,0.2,0,0.3,0l0,0.1c0,0.3,0,0.6,0,0.9C21.3,11.2,21.3,11.8,21.2,12.4
	C21.2,12.3,21.2,12.3,21.2,12.4z"/>
<path class="st0" d="M18.1,12.9c-0.1-0.2-0.2-0.4-0.3-0.7c-0.1-0.2-0.2-0.5-0.3-0.7c-0.1-0.3-0.2-0.5-0.3-0.8c0-0.1,0-0.2,0.1-0.2
	c0.3-0.1,0.5-0.1,0.8-0.1l0.1,0c0.1,0,0.1,0.1,0.1,0.1l0,0.5c0,0.4,0,0.8-0.1,1.2l0,0.2C18.1,12.5,18.1,12.7,18.1,12.9z"/>
<path class="st0" d="M15.1,13.3c-0.1-0.2-0.2-0.4-0.3-0.6c-0.1-0.2-0.2-0.5-0.3-0.7c-0.1-0.3-0.2-0.5-0.3-0.8c0-0.1,0-0.1,0-0.1
	c0,0,0.1-0.1,0.1-0.1c0.2-0.1,0.5-0.1,0.8-0.1l0.1,0l0.1,0.1c0,0.3,0,0.5,0,0.8C15.2,12.3,15.1,12.8,15.1,13.3z"/>
<path class="st0" d="M12.1,14c-0.2-0.3-0.3-0.6-0.4-0.8l0-0.1c-0.1-0.2-0.1-0.3-0.2-0.5c-0.1-0.2-0.1-0.4-0.2-0.6c0-0.1,0-0.1,0-0.1
	c0,0,0,0,0.1-0.1c0.2-0.1,0.5-0.1,0.8-0.1c0,0,0.1,0,0.1,0c0,0,0,0.1,0,0.1c0,0.3,0,0.6,0,0.9C12.2,13,12.2,13.5,12.1,14z"/>
</svg>
