<?xml version="1.0" encoding="utf-8"?>
<!-- Generator: Adobe Illustrator 19.2.1, SVG Export Plug-In . SVG Version: 6.00 Build 0)  -->
<svg version="1.1" id="Layer_1" xmlns="http://www.w3.org/2000/svg" xmlns:xlink="http://www.w3.org/1999/xlink" x="0px" y="0px"
	 viewBox="0 0 58 58" style="enable-background:new 0 0 58 58;" xml:space="preserve">
<style type="text/css">
	.st0{opacity:0.7;fill:#198396;}
	.st1{fill:#70A06B;}
	.st2{opacity:0.8;fill:#196674;}
	.st3{opacity:0.7;}
	.st4{fill:#198396;}
	.st5{opacity:0.4;fill:#198396;}
	.st6{opacity:0.5;fill:#198396;}
</style>
<g>
	<g class="st3">
		<polygon class="st4" points="6.1,52.1 53,58.1 53,54.8 6.1,48.9 		"/>
		<path class="st4" d="M50,8.8c-0.2,0.1-0.5,0.1-0.8,0.1c0,0-0.1,0-0.1,0l-43,5.4V48L53,53.8v-47C52.3,7.8,51.2,8.5,50,8.8z"/>
	</g>
	<path class="st2" d="M43.4,4c0-1.2,0.5-2.3,1.3-3.1L4.6,10c-0.9,0.2-1.6,1-1.6,1.8c0,1.1,1.1,2,2.3,1.8l40.9-5.5
		C44.6,7.4,43.4,5.8,43.4,4z"/>
	<path class="st2" d="M48.7,0.1c-0.3,0-0.5,0-0.8,0.1c-0.2,0-0.3,0.1-0.4,0.1c-1.8,0.5-3.1,2-3.1,3.8c0,2.1,2,3.9,4.4,3.8
		c0.1,0,0.1,0,0.2,0l0,0c1.7-0.1,3.2-1.1,3.8-2.4c0,0,0-0.1,0-0.1c0.1-0.2,0.2-0.4,0.2-0.6c0-0.1,0-0.3,0-0.5c0-0.1,0-0.2,0-0.3
		C53,1.7,51.1,0,48.7,0.1z"/>
</g>
</svg>
